<?xml version="1.0" standalone="no"?>
<!DOCTYPE svg PUBLIC "-//W3C//DTD SVG 20010904//EN"
 "http://www.w3.org/TR/2001/REC-SVG-20010904/DTD/svg10.dtd">
<svg version="1.0" xmlns="http://www.w3.org/2000/svg"
 width="1456.000000pt" height="1456.000000pt" viewBox="0 0 1456.000000 1456.000000"
 preserveAspectRatio="xMidYMid meet">
<metadata>
Created by potrace 1.14, written by Peter Selinger 2001-2017
</metadata>
<g transform="translate(0.000000,1456.000000) scale(0.100000,-0.100000)"
fill="#000000" stroke="none">
<path d="M7237 12000 c-26 -10 -50 -19 -52 -19 -21 -6 -336 -132 -400 -161
-22 -10 -67 -30 -100 -45 -33 -15 -76 -34 -95 -43 -19 -9 -37 -16 -40 -17 -9
-3 -75 -33 -175 -80 -53 -25 -100 -45 -104 -45 -4 0 -34 -13 -67 -29 -32 -15
-81 -38 -109 -51 -27 -12 -74 -33 -104 -47 -30 -14 -89 -40 -130 -58 -78 -33
-161 -70 -241 -107 -25 -12 -51 -21 -57 -21 -7 0 -13 -4 -13 -9 0 -4 -4 -8 -9
-8 -5 0 -40 -14 -78 -32 -37 -17 -72 -32 -78 -33 -5 -2 -41 -17 -80 -35 -82
-38 -199 -90 -215 -95 -5 -2 -37 -16 -145 -65 -65 -30 -152 -69 -190 -85 -16
-8 -61 -28 -100 -45 -38 -18 -74 -33 -80 -34 -5 -2 -45 -19 -89 -39 -43 -20
-106 -49 -140 -63 -33 -14 -68 -30 -76 -35 -8 -5 -22 -12 -30 -15 -8 -3 -43
-19 -78 -35 -35 -16 -65 -29 -68 -29 -3 0 -29 -11 -57 -24 -29 -13 -79 -36
-112 -51 -33 -15 -80 -37 -105 -48 -25 -11 -47 -21 -50 -22 -11 -4 -89 -39
-155 -69 -38 -18 -91 -41 -118 -51 -26 -10 -47 -21 -47 -25 0 -4 -6 -7 -12 -7
-7 0 -40 -12 -73 -27 -33 -16 -73 -34 -90 -41 -16 -7 -55 -24 -85 -38 -30 -14
-89 -40 -130 -57 -78 -34 -139 -61 -225 -100 -27 -13 -52 -24 -55 -25 -12 -4
-59 -24 -100 -43 -276 -126 -338 -153 -350 -153 -3 0 -13 -8 -22 -16 -10 -9
-18 -13 -18 -9 0 4 -12 0 -27 -8 -16 -8 -75 -36 -133 -62 -58 -26 -134 -60
-170 -77 -36 -16 -71 -30 -77 -30 -7 0 -13 -4 -13 -8 0 -3 -10 -10 -22 -14
-13 -4 -25 -8 -28 -9 -3 -2 -16 -7 -30 -13 -14 -6 -54 -24 -90 -41 -141 -64
-159 -72 -169 -72 -6 0 -11 -4 -11 -9 0 -5 -6 -8 -12 -8 -7 1 -40 -12 -73 -27
-101 -47 -158 -72 -215 -97 -30 -12 -58 -28 -62 -33 -4 -6 -8 -7 -8 -3 0 4
-10 2 -22 -5 -13 -7 -25 -13 -28 -13 -3 -1 -31 -13 -63 -28 -32 -15 -60 -27
-62 -27 -3 0 -40 -16 -82 -36 -43 -20 -94 -43 -113 -52 -19 -8 -77 -35 -128
-58 -51 -24 -95 -44 -97 -44 -2 0 -60 -27 -130 -60 -70 -33 -131 -60 -136 -60
-5 0 -9 -5 -9 -10 0 -6 -3 -9 -7 -8 -11 3 -146 -65 -163 -82 -3 -3 -22 -14
-42 -24 -42 -21 -48 -35 -18 -43 11 -3 20 -9 20 -14 0 -5 9 -9 19 -9 11 0 21
-3 23 -8 2 -4 71 -40 153 -81 83 -40 158 -77 167 -82 10 -5 26 -13 35 -18 41
-21 215 -101 219 -101 2 0 41 -17 87 -39 74 -35 115 -53 212 -96 17 -8 73 -33
125 -58 52 -24 97 -44 100 -44 3 -1 37 -16 75 -33 161 -73 274 -120 284 -120
6 0 11 -4 11 -10 0 -5 6 -10 14 -10 7 0 34 -11 60 -25 25 -13 46 -22 46 -19 0
4 11 -1 25 -10 14 -9 25 -14 25 -10 0 4 6 2 13 -4 6 -6 53 -28 102 -50 116
-51 175 -78 253 -113 35 -16 65 -29 68 -29 3 0 33 -13 67 -29 62 -29 115 -53
217 -98 30 -13 75 -34 100 -45 25 -11 59 -26 75 -33 17 -7 57 -25 90 -40 33
-15 76 -34 95 -42 19 -9 63 -28 97 -44 34 -16 64 -29 67 -29 2 0 52 -23 111
-50 59 -27 108 -50 110 -50 2 0 35 -14 72 -31 37 -17 92 -42 121 -55 28 -13
76 -35 105 -48 28 -13 83 -38 120 -55 37 -17 72 -31 77 -31 6 0 10 -4 10 -8 0
-5 6 -9 14 -9 7 0 49 -17 92 -38 43 -20 83 -38 89 -39 5 -1 17 -6 25 -11 8 -5
17 -10 20 -11 7 -1 47 -18 115 -49 33 -15 76 -34 95 -42 48 -21 101 -45 193
-87 43 -20 80 -36 82 -36 3 0 28 -11 57 -24 171 -78 329 -148 338 -150 3 -1
31 -14 64 -29 32 -15 65 -27 72 -27 8 0 14 -4 14 -9 0 -5 10 -13 23 -17 23 -7
69 -27 175 -75 35 -16 65 -29 67 -29 2 0 32 -13 67 -29 125 -57 179 -81 182
-81 2 0 47 -20 100 -45 53 -25 100 -45 103 -45 4 0 34 -13 67 -29 83 -39 197
-91 201 -91 2 0 32 -13 67 -29 208 -95 231 -105 241 -103 4 1 7 -3 7 -8 0 -5
3 -9 8 -8 8 1 33 -9 117 -48 33 -15 63 -27 68 -26 4 1 7 -3 7 -8 0 -5 3 -9 8
-8 4 1 23 -5 42 -14 19 -8 134 -59 255 -112 278 -123 269 -119 275 -121 3 -1
19 -7 35 -14 141 -60 185 -70 251 -57 40 8 79 19 89 25 6 3 15 6 20 7 6 1 24
8 40 15 17 7 32 13 35 14 3 0 16 7 30 15 14 7 27 13 30 13 11 -1 96 35 206 88
33 16 63 29 67 29 3 0 53 22 112 50 59 27 108 50 110 50 2 0 33 14 68 30 36
17 70 30 76 30 6 0 11 4 11 9 0 9 48 26 63 23 4 -1 7 3 7 8 0 6 8 10 18 10 9
0 26 7 36 15 10 8 23 12 27 9 5 -3 9 -1 9 4 0 5 10 13 23 17 12 4 24 8 27 9 3
2 16 8 30 13 14 6 68 32 122 56 53 25 99 43 102 40 3 -4 6 -1 6 5 0 7 4 12 10
12 9 0 73 28 180 78 30 15 57 27 60 28 3 0 25 10 50 21 25 11 70 31 100 43 30
13 59 27 64 32 6 4 15 8 22 8 7 0 45 15 86 34 40 18 111 50 158 71 47 20 122
55 167 76 46 22 85 39 88 39 2 0 28 11 57 24 92 42 163 74 358 161 58 26 121
54 140 63 19 9 37 16 40 17 3 1 21 8 40 17 32 15 59 27 210 95 30 13 67 31 83
39 15 8 27 12 27 8 0 -3 6 -2 13 4 6 5 75 38 152 72 77 34 160 72 185 83 25
12 47 22 50 22 11 3 59 24 110 49 29 14 60 26 67 26 7 0 13 5 13 11 0 5 4 8 9
4 5 -3 12 -1 16 5 3 5 15 10 26 10 10 0 19 5 19 10 0 6 5 10 11 10 5 0 29 9
52 19 23 11 85 38 137 61 52 23 120 53 150 67 52 24 99 44 110 48 21 7 189 83
212 95 10 6 25 10 33 10 8 0 15 5 15 10 0 6 3 9 8 8 4 -1 19 4 34 10 70 29
245 106 263 115 11 6 25 12 30 12 6 1 30 11 55 23 25 12 51 22 58 22 6 0 12 5
12 10 0 6 3 9 8 8 7 -1 28 6 77 27 17 8 37 15 45 17 8 2 17 5 20 8 12 14 214
88 226 83 13 -5 25 -44 30 -98 3 -31 16 -378 15 -405 -2 -99 -1 -132 5 -142 4
-6 3 -9 -2 -5 -5 3 -8 -34 -7 -86 3 -125 3 -140 3 -157 -1 -21 -1 -138 0 -184
1 -22 4 -44 7 -49 3 -6 2 -8 -3 -4 -5 3 -9 -24 -9 -60 l0 -66 -45 -25 c-79
-44 -214 -129 -239 -151 -13 -12 -27 -21 -31 -21 -9 0 -137 -125 -162 -157
-29 -38 -92 -154 -120 -223 -60 -146 -77 -282 -50 -409 19 -90 20 -96 22 -98
2 -2 3 -6 4 -10 1 -5 6 -24 10 -43 5 -19 12 -41 17 -50 14 -24 32 -74 31 -82
-1 -5 2 -8 6 -8 4 0 14 -17 21 -37 19 -51 92 -155 143 -203 24 -23 79 -68 123
-101 117 -88 120 -91 137 -127 11 -24 14 -57 12 -120 -4 -88 -5 -102 -19 -202
-4 -30 -9 -75 -11 -100 -1 -25 -3 -45 -4 -45 -3 0 -7 -29 -15 -91 -4 -32 -8
-68 -10 -79 -1 -11 -6 -45 -9 -75 -4 -30 -8 -66 -11 -80 -2 -14 -7 -45 -10
-70 -14 -109 -16 -126 -20 -140 -2 -8 -7 -40 -10 -70 -5 -50 -12 -90 -30 -200
-3 -19 -7 -51 -9 -70 -4 -39 -17 -131 -23 -170 -2 -14 -5 -41 -7 -60 -2 -19
-7 -53 -10 -75 -3 -22 -8 -60 -11 -85 -3 -25 -8 -62 -11 -83 -8 -55 -13 -239
-7 -269 10 -54 116 -68 503 -68 296 1 556 11 620 26 14 3 30 6 37 6 6 1 24 11
39 23 21 16 27 30 27 61 1 36 -12 184 -19 229 -2 11 -6 38 -8 60 -2 22 -5 40
-6 40 -1 0 -3 11 -4 25 -2 14 -6 48 -10 75 -4 28 -10 66 -12 85 -3 19 -7 49
-9 65 -2 17 -7 53 -10 80 -3 28 -8 61 -10 75 -3 14 -7 48 -11 75 -3 28 -8 64
-11 80 -2 17 -6 44 -8 60 -2 17 -6 50 -10 75 -3 25 -8 59 -10 75 -2 17 -4 30
-5 30 -1 0 -3 18 -6 40 -2 22 -7 56 -10 75 -4 19 -8 46 -9 60 -3 33 -14 116
-20 160 -3 19 -8 53 -11 75 -3 22 -7 51 -10 65 -3 14 -7 45 -9 70 -3 25 -10
75 -16 112 -12 73 -13 82 -24 176 l-8 63 69 62 c84 76 290 281 324 322 45 55
82 106 85 118 1 7 9 28 18 48 16 37 19 46 41 174 12 64 13 211 3 260 -3 11 -8
40 -13 65 -4 25 -8 47 -9 50 -1 3 -5 19 -9 35 -4 17 -14 42 -21 56 -8 14 -12
29 -8 33 3 3 2 6 -3 6 -6 0 -16 16 -23 35 -7 19 -17 35 -22 35 -5 0 -9 5 -9
11 0 20 -99 154 -167 225 -78 81 -132 124 -157 124 -18 0 -65 24 -99 50 -71
54 -104 108 -113 183 -4 35 -15 271 -15 315 1 6 1 37 2 67 1 31 -1 59 -5 62
-3 3 -1 12 5 19 7 8 7 14 0 18 -7 4 -7 15 -1 31 5 14 5 27 0 30 -5 3 -5 18 -2
33 4 15 6 41 5 57 -2 17 -3 44 -2 60 0 30 0 44 -2 68 -2 26 12 443 15 467 2
14 7 45 11 70 12 80 39 104 225 197 52 27 97 51 98 56 2 4 8 7 13 7 10 0 46
15 176 77 40 18 74 32 75 31 2 -1 17 5 33 15 32 17 246 120 255 121 3 1 50 25
104 54 136 73 155 101 103 151 -24 22 -357 191 -407 206 -3 1 -30 13 -60 27
-159 75 -300 136 -300 131 0 -3 -8 1 -17 9 -10 8 -34 21 -53 28 -19 7 -64 27
-100 43 -36 16 -103 46 -150 67 -47 21 -105 47 -130 58 -126 58 -180 80 -180
75 0 -3 -9 2 -20 12 -11 10 -20 15 -20 12 0 -12 -341 132 -365 154 -5 5 -17 9
-27 9 -10 0 -18 5 -18 10 0 6 -6 10 -14 10 -8 0 -27 7 -43 15 -15 8 -71 34
-123 59 -52 24 -117 54 -145 67 -27 13 -52 23 -55 24 -3 0 -34 15 -70 32 -66
32 -154 72 -225 103 -22 10 -75 34 -118 54 -42 20 -79 36 -81 36 -2 0 -34 14
-72 32 -38 17 -73 33 -79 34 -5 1 -62 25 -125 54 -141 63 -157 71 -245 108
-38 17 -96 42 -128 56 -32 14 -60 26 -63 26 -6 0 -151 67 -186 86 -16 8 -28
13 -28 10 0 -3 -27 8 -60 25 -53 26 -105 50 -120 54 -3 1 -36 16 -74 33 -38
18 -71 32 -73 32 -6 0 -129 57 -173 80 -19 10 -38 19 -43 19 -4 1 -46 19 -93
41 -47 22 -88 40 -90 40 -2 0 -36 15 -76 34 -40 19 -120 55 -177 80 -148 67
-186 84 -279 127 -45 22 -84 39 -86 39 -2 0 -48 21 -103 46 -87 41 -137 64
-153 69 -3 1 -31 14 -62 28 -62 28 -130 59 -138 62 -3 1 -27 12 -55 24 -27 12
-61 27 -75 33 -99 41 -219 93 -285 123 -38 18 -86 39 -105 48 -43 19 -188 85
-215 97 -43 20 -140 63 -145 65 -3 0 -36 16 -74 33 -38 18 -71 32 -73 32 -2 0
-38 16 -81 36 -83 38 -96 44 -157 69 -77 33 -167 71 -210 90 -26 11 -70 27
-85 30 -3 1 -22 9 -44 18 -48 21 -135 47 -155 47 -9 -1 -38 -9 -64 -20z"/>
<path d="M11016 6502 c-4 -4 -17 -8 -29 -8 -28 -2 -74 -11 -85 -18 -5 -3 -19
-7 -33 -10 -42 -9 -114 -37 -120 -48 -3 -5 -8 -8 -10 -7 -2 1 -20 -3 -39 -11
-19 -7 -37 -14 -40 -15 -3 -1 -32 -14 -65 -29 -33 -15 -66 -29 -73 -30 -7 -1
-18 -8 -24 -14 -7 -7 -16 -12 -21 -12 -4 0 -29 -10 -55 -21 -106 -49 -169 -76
-199 -88 -18 -8 -33 -17 -33 -22 0 -5 -3 -8 -7 -7 -5 2 -33 -8 -63 -22 -30
-13 -57 -25 -60 -25 -6 -2 -66 -28 -150 -67 -36 -16 -74 -33 -85 -38 -11 -5
-42 -19 -70 -31 -27 -13 -52 -23 -55 -24 -3 0 -31 -13 -64 -28 -32 -15 -60
-27 -62 -27 -1 0 -42 -18 -89 -40 -47 -22 -88 -40 -90 -40 -2 0 -43 -18 -90
-40 -47 -22 -88 -40 -90 -40 -2 0 -34 -14 -72 -31 -37 -16 -77 -34 -88 -39
-11 -5 -49 -22 -85 -38 -95 -43 -144 -65 -150 -66 -3 -1 -21 -9 -40 -18 -19
-9 -57 -26 -85 -38 -27 -13 -78 -36 -113 -51 -34 -16 -64 -29 -67 -29 -2 0
-32 -13 -67 -29 -143 -66 -207 -95 -298 -134 -14 -5 -28 -10 -32 -9 -5 1 -8
-2 -8 -8 0 -5 -4 -10 -9 -10 -5 0 -22 -5 -38 -12 -15 -6 -31 -11 -35 -10 -5 1
-8 -2 -8 -8 0 -5 -5 -10 -11 -10 -5 0 -30 -9 -55 -20 -24 -11 -63 -28 -86 -39
-24 -10 -65 -29 -93 -41 -27 -13 -56 -24 -64 -26 -7 -1 -32 -12 -55 -23 -44
-21 -118 -54 -126 -56 -3 -1 -14 -5 -25 -10 -157 -64 -194 -77 -221 -78 -18
-1 -43 4 -56 11 -13 6 -61 27 -108 46 -87 35 -209 90 -292 132 -27 13 -48 21
-48 18 0 -3 -13 4 -29 15 -16 12 -33 21 -38 21 -5 0 -29 10 -54 22 -24 12 -46
22 -49 23 -3 0 -27 11 -55 23 -27 13 -51 23 -53 22 -1 0 -26 12 -55 26 -28 15
-86 42 -127 59 -41 18 -102 46 -135 61 -33 15 -62 28 -65 29 -3 0 -36 15 -73
33 -38 18 -75 32 -83 32 -8 0 -14 5 -14 11 0 5 -4 7 -10 4 -5 -3 -10 -1 -10 4
0 6 -6 11 -13 11 -12 0 -80 29 -119 50 -10 6 -24 10 -31 10 -7 0 -19 6 -26 13
-6 6 -15 12 -19 13 -9 1 -52 19 -120 50 -31 15 -93 42 -137 61 -44 20 -109 49
-145 65 -36 16 -83 37 -105 46 -22 8 -48 22 -57 30 -10 8 -18 13 -18 9 0 -3
-48 17 -107 44 -60 27 -114 49 -120 49 -7 0 -13 5 -13 10 0 6 -6 10 -14 10 -8
0 -31 9 -53 19 -53 28 -219 102 -233 106 -3 0 -21 8 -40 17 -65 31 -245 110
-255 113 -5 1 -35 13 -65 27 -66 30 -213 92 -220 93 -3 0 -12 5 -20 10 -8 5
-24 11 -34 12 -11 2 -24 7 -30 12 -6 4 -38 18 -71 30 -65 25 -93 36 -127 51
-60 25 -130 42 -154 36 -65 -17 -129 -84 -177 -186 -41 -88 -77 -172 -77 -180
0 -4 -8 -25 -17 -46 -9 -22 -17 -41 -18 -44 -1 -3 -8 -25 -15 -50 -7 -25 -14
-47 -15 -50 -1 -3 -7 -23 -13 -46 -16 -56 -40 -182 -47 -244 -2 -19 -6 -51
-10 -70 -3 -19 -8 -60 -10 -90 -2 -30 -5 -55 -6 -55 -1 0 -2 -12 -13 -175 -9
-122 -17 -284 -19 -365 l-2 -70 80 -27 c44 -14 94 -28 110 -29 17 -2 35 -6 40
-10 6 -4 53 -10 105 -14 52 -3 127 -8 165 -11 39 -3 82 -6 98 -7 15 0 27 -3
27 -7 0 -3 12 -5 27 -4 14 0 45 -3 67 -8 23 -4 57 -10 76 -13 19 -2 44 -6 55
-9 11 -2 56 -12 100 -20 132 -27 329 -76 375 -93 8 -3 20 -7 25 -8 6 -1 12 -3
15 -4 3 -1 16 -4 30 -7 14 -2 32 -7 40 -11 8 -3 20 -7 25 -8 42 -11 347 -119
388 -138 29 -14 68 -32 87 -40 19 -8 73 -33 120 -55 47 -22 117 -54 155 -72
39 -18 73 -37 76 -42 3 -5 9 -9 13 -8 8 2 140 -70 193 -105 21 -14 45 -30 53
-35 132 -82 413 -280 477 -336 11 -10 40 -34 62 -53 155 -126 541 -500 541
-524 0 -2 19 -25 43 -50 90 -97 317 -384 317 -402 0 -14 121 -125 143 -130 49
-13 127 56 228 201 23 32 45 61 50 62 5 2 9 9 9 15 0 13 92 125 206 254 130
146 373 384 529 518 32 28 63 55 69 61 12 11 257 206 293 232 79 59 235 160
278 182 17 8 32 17 35 21 8 9 189 107 210 114 11 4 20 11 20 16 0 5 4 9 10 9
5 0 52 20 104 45 52 24 100 46 108 47 7 2 16 7 19 11 3 5 12 9 20 10 8 2 19 5
24 9 25 15 319 130 343 134 8 1 21 6 30 10 9 4 22 8 28 9 13 3 137 40 202 61
24 8 47 12 52 9 5 -3 11 -1 14 4 3 5 23 12 43 17 43 9 51 10 58 14 6 3 5 3 60
15 22 4 45 9 50 11 51 12 115 26 135 30 14 2 36 7 50 10 14 3 39 8 55 10 17 2
41 6 55 9 14 3 43 8 65 11 22 3 54 7 70 9 82 12 146 18 202 19 35 1 63 3 63 6
0 3 27 4 59 4 69 -2 153 13 163 30 4 6 8 8 8 3 0 -12 51 24 82 58 66 72 77
138 64 390 -4 82 -7 124 -22 315 -2 36 -7 81 -10 100 -3 19 -7 49 -9 65 -13
117 -15 138 -19 144 -2 3 -7 26 -11 51 -4 24 -12 53 -17 65 -6 11 -10 20 -9
20 5 0 -13 61 -27 95 -9 19 -17 40 -18 45 -1 6 -10 28 -19 50 -10 22 -17 41
-16 43 2 4 -87 176 -106 204 -23 34 -67 68 -93 73 -11 2 -24 6 -29 9 -4 3 -11
2 -15 -2z"/>
</g>
</svg>
