<svg version="1.2" xmlns="http://www.w3.org/2000/svg" viewBox="0 0 2324 1334" width="2324" height="1334">
	<title>classy-text</title>
	<style>
		.s0 { fill: #e88d67 } 
	</style>
	<path id="Layer" fill-rule="evenodd" class="s0" d="m787.5 0c4.5 0 8.3 1.8 12.5 6c4.7 4.7 6 7.8 6 14c0 7.3-1.8 10.1-21.5 32.5c-11.9 13.5-33.7 39.3-48.6 57.5c-14.8 18.1-35.1 43.3-45.1 56c-9.9 12.6-30.2 39.2-45.1 59c-14.8 19.8-40.5 54.9-57.1 78c-16.5 23.1-39.9 56.8-52 75c-12.1 18.1-31.8 49.2-43.7 69c-12 19.8-29.5 51.3-39 70c-9.5 18.7-20.9 43.4-25.5 55c-4.5 11.5-10 28.6-12.3 38c-2.2 9.3-4.1 22.4-4.1 29c0.1 6.6 1.2 14.2 2.5 16.9c1.4 2.7 5.6 7 9.5 9.6c6 4 9.4 4.6 25 4.5c9.9 0 26.1-1.3 36-2.9c9.9-1.6 26.1-5.3 36-8.2c9.9-2.8 29.2-9.8 43-15.5c13.7-5.7 35.8-16.5 49-24.1c13.2-7.6 30.8-18.4 39-23.9c8.2-5.6 22.2-15.5 31-22.1c8.8-6.7 22.3-18 30-25.3c7.7-7.2 18-16.3 23-20.2c4.9-3.9 14.4-10.3 21-14.3c6.6-4 17.8-10 25-13.3c7.1-3.4 20.6-8.5 30-11.4c13.8-4.2 21.1-5.2 39-5.3c17.2-0.1 24.4 0.7 33 3.8c6 2.2 15 6.7 20 10.1c4.9 3.3 11.5 8.8 14.5 12.3c4 4.6 5.5 8.4 5.5 14.3c0 6.3 0.7 8 3.5 7.9c1.9 0 5.7 2.4 8.5 5.2c4.5 4.7 5.1 7.5 6.4 27.6c1.2 17.9 2.4 24.4 6.5 32.8c3.3 6.8 8.1 12.7 13.6 16.6c4.7 3.3 12.1 7 16.5 8.2c4.4 1.2 16.1 1.7 26 1.2c13.1-0.7 23.2-2.7 37-7.4c10.4-3.5 28-11 39-16.7c11-5.7 32.2-18.4 47-28.3c14.9-10 35.8-25.3 46.6-34.1c12.8-10.5 19.5-17.4 19.5-20c0-2.2 2.5-8.3 5.5-13.7c3.4-6 9.1-12.1 15.4-16.3c5.5-3.7 16.7-8.8 25-11.3c11.8-3.7 19.7-4.6 37-4.6c12.1 0 25.8 1.1 30.5 2.4c4.7 1.4 11.2 4.7 14.5 7.5c3.5 2.9 6.5 7.7 7.2 11.5c0.6 3.7 0 9-1.5 12.3c-1.5 3.1-5.2 7-8.2 8.5c-3 1.5-7.1 2.7-9 2.7c-1.9 0.1-7.1-1.4-11.5-3.2c-6.1-2.5-11.9-3-24-2.3c-8.8 0.6-21.2 3-27.5 5.3c-6.3 2.3-12.1 5.3-12.8 6.7c-0.8 1.4 1.2 4.7 4.5 7.6c3.2 2.8 12.5 8.9 20.8 13.7c8.2 4.8 19.9 11.9 26 15.8c6 3.9 15.3 11.2 30.2 25.4l33.4-9.8c18.4-5.3 52.3-14.5 75.4-20.3c23.1-5.8 64.5-15.5 92-21.7c27.5-6.1 51.6-11.2 53.5-11.2c2.3 0 4.1-2.5 5.5-7.5c1.1-4.1 3.8-10.4 6-14c2.2-3.6 7.8-9.2 12.5-12.6c4.7-3.3 13-7.7 18.5-9.8c5.5-2 17.2-4.8 26-6.2c8.8-1.4 22.3-2 30-1.4c8.2 0.6 18.5 3 24.8 5.8c5.9 2.6 12 6.5 13.5 8.7c1.5 2.2 2.7 7.4 2.7 11.5c0 5.6-1.5 9-5.8 13.5c-4.3 4.3-7.7 6-12.5 5.9c-3.7 0-9-1.3-11.7-2.9c-2.8-1.6-10-2.9-16-3c-6.1 0-15.7 0.9-21.5 2c-5.8 1.1-13.8 3.6-17.9 5.5c-4 1.9-7.6 4.6-8 6c-0.3 1.4 1.4 4.4 3.9 6.7c2.5 2.2 16.1 11 30.2 19.5c14.1 8.4 30.3 19.6 46.3 34.6l44-12.1c24.2-6.6 56.6-15.2 72-19c15.4-3.8 43.7-10.5 63-15c19.2-4.4 46.2-10.3 60-13.3c23.5-4.9 25.4-5.1 31.5-2.1c5 2.5 6.7 2.6 7.4 0.7c0.4-1.4 2.3-7.9 4.1-14.5c1.9-6.6 6.3-18.3 9.8-26c3.5-7.7 9.1-16.1 12.3-18.7c4.7-3.7 7.5-4.5 13.9-3.6c5.2 0.7 9.6 2.9 12.5 6.2c2.5 2.8 4.5 7.3 4.5 10.1c0 2.7-3.2 13.1-7 23c-3.9 9.9-8.4 23.2-10 29.5c-1.7 6.3-3 16-3.1 21.5c0 7 1.2 11.7 4 15.5c2.5 3.4 7.4 6.3 12.6 7.7c5.2 1.4 14.8 1.7 24.5 0.9c8.8-0.7 24.3-2.6 34.5-4.2c10.2-1.6 28.2-5.6 40-8.8c11.8-3.3 29.1-8.5 38.5-11.8c9.3-3.2 24-8.6 32.5-12.1c8.5-3.4 24.7-10.8 36-16.5c11.3-5.6 30.4-16.2 42.5-23.4c15.1-9.1 24.1-13.2 28.7-13.2c5.1-0.1 8 1.5 12.7 6.9c5.1 5.8 6 8.2 5.1 14c-0.6 3.8-17.1 35.8-36.5 71c-19.5 35.2-54.1 99.1-76.9 142c-22.9 42.9-59.6 112.2-81.5 154c-22 41.8-78.2 151.6-124.9 244c-46.6 92.4-89.3 177-94.8 188c-8.2 16.6-11.2 20.7-24.8 28l-7.4-4c-4.4-2.4-8.4-6.6-10-10.5c-1.5-3.6-2.1-9-1.5-12c0.7-3 37.5-77.5 81.7-165.5c44.3-88 97.9-193.3 119-234c21.2-40.7 54.8-104.6 74.6-142c19.8-37.4 52-97.7 71.6-134c19.6-36.3 36.4-67.7 37.3-69.9c1.5-3.4 0.7-3.3-8.4 1.3c-5.5 2.8-19.9 9.2-32 14.1c-12.1 5-33.3 12.7-47 17.2c-13.8 4.4-36.7 10.4-51 13.3c-14.3 2.8-36.4 5.8-49 6.7c-12.7 0.8-28.9 0.7-36-0.1c-7.2-0.9-17-3.7-22-6.1c-4.9-2.5-12-7.7-15.7-11.5c-3.7-3.9-8-9.5-9.5-12.5c-1.5-3-3.7-10-4.8-15.5c-1.6-8.2-2.6-9.8-5.5-8.9c-1.9 0.6-24.7 5.6-50.5 11.1c-25.9 5.6-71.8 16.3-102 23.9c-30.3 7.7-66.3 17.3-105 28.9l-1.3 12c-0.9 8-4.1 17.3-9.4 28c-4.5 8.8-13.8 23.2-20.9 32c-7 8.8-17.7 20.4-23.6 25.8c-5.9 5.4-18 15.2-26.8 21.7c-8.8 6.5-23.7 15.7-33 20.4c-9.4 4.7-22.4 9.7-29 11c-6.6 1.4-18.7 2.2-27 1.7c-10.9-0.7-17.7-2.4-25-6.1c-5.5-2.8-12.9-8.1-16.4-11.8c-3.5-3.7-8.8-11.7-11.9-17.7c-4.3-8.5-5.6-13.7-5.5-23q0.1-12 4.7-22c2.6-5.9 9.6-14.9 16.9-22c6.8-6.6 20-16.5 29.3-21.9c9.3-5.5 28.1-15.1 41.9-21.4c13.7-6.2 36.9-15.7 51.5-21c14.6-5.3 26.6-10.2 26.6-10.7c0-0.6-8.8-6.1-19.6-12.4c-10.7-6.3-24.5-14.9-41.5-27l-11 2.5c-6.1 1.4-26.8 5.8-46 9.8c-19.3 4.1-56.6 12.6-83 19.1c-26.4 6.5-64.5 16.6-84.6 22.4c-34.9 10.1-36.5 10.8-36.4 15.6c0 2.7-1.4 9.9-3.2 16c-1.8 6-5.5 15.5-8.3 21c-2.7 5.5-9.3 15.8-14.5 23c-5.3 7.1-17.6 20.7-27.3 30c-9.7 9.4-23.6 21.1-30.7 26.2c-7.2 5-18 11.9-24 15.3c-6.1 3.4-18 8.5-26.5 11.4c-11.1 3.6-19.7 5.1-30.5 5.1c-9.8 0-18.6-1.3-25.5-3.8c-6.1-2.3-14.3-7.5-19.5-12.6c-5-4.8-11.2-13.2-13.9-18.7c-2.7-5.4-5.3-14.4-5.8-19.9c-0.5-6.3 0.4-13.7 2.5-20c1.9-5.5 6.2-13.6 9.6-18c3.4-4.4 10.8-11.8 16.4-16.4c5.6-4.5 17.8-12.7 27.2-18.1c9.3-5.5 27.8-14.7 41-20.6c13.2-5.8 35.7-14.9 76-29.4l-8-5c-4.4-2.8-16.6-10-27-16c-10.5-6-20.4-12.5-22-14.3c-1.7-1.9-3.7-3.3-4.5-3.3c-0.8 0.1-8.9 6.1-18 13.3c-9.1 7.3-24.6 18.9-34.5 25.8c-9.9 6.9-28.4 18.5-41 25.7c-12.7 7.3-31.6 16.8-42 21c-10.5 4.3-26.2 9.9-35 12.5c-13.5 4-20.4 4.8-44 4.8c-27.9 0-28.1 0-42.7-7c-10.2-4.8-17.9-10.3-24.5-17.5c-5.4-5.8-12.4-16.1-15.6-23c-3.1-6.9-6.3-14.1-7-16c-1-3-2.7-2.3-11.7 5.2c-5.8 4.8-18.2 13.9-27.5 20.2c-9.4 6.3-27.8 16.7-41 23.1c-13.2 6.4-31.2 13.9-40 16.7c-8.8 2.7-23.2 5.9-32 7.1c-10.2 1.4-20.3 1.5-28 0.4c-6.6-1-14.7-2.9-18-4.1c-3.3-1.3-9.5-4.7-13.7-7.7c-4.2-3-9.6-8.6-11.9-12.4c-2.4-3.9-5.2-9.8-8.4-19.7l-20 12.6c-11 6.9-29.9 17.6-42 23.7c-12.1 6.1-31 14.6-42 18.9c-11 4.4-26.3 9.8-34 12.1c-7.7 2.3-23.5 6.2-35 8.7c-16.2 3.4-27.7 4.5-79.5 4.7l-15.5-8c-10.9-5.6-17.3-10.4-21.3-16c-3.1-4.4-7.5-13.2-9.7-19.5c-2.6-7.5-4-16.5-4-26c0.1-8 1.8-22.6 4-32.5c2.2-9.9 3.5-18.2 3-18.5c-0.6-0.3-11.1 4.6-23.5 10.7c-12.4 6.2-33.3 15.7-46.5 21.1c-13.2 5.5-34.8 13.3-48 17.6c-13.2 4.2-34.8 10.1-48 13c-13.2 3-33.5 6.7-45 8.2c-11.6 1.6-33.8 2.8-49.5 2.9c-17.4 0-34.5-1.2-44-3c-8.5-1.7-21.1-5.7-28-9c-6.9-3.3-17.2-10.4-23-15.7c-6.8-6.4-12.6-14.2-16.5-22.5c-5.3-11.5-5.9-14.9-6-32.8c0-13.4 1.1-23.6 3.4-31c1.9-6.1 6.9-16.8 11-23.9c4.2-7.1 12.5-17.9 18.6-24.1c6-6.1 15.9-13.6 22-16.6c6.4-3.3 16-6.1 23-6.8c8.9-0.8 14.8-0.2 23 2.6c7.6 2.5 13.7 6.5 19.7 12.7c5 5.3 10.3 13.7 12.7 20.1c2.2 6 4.6 16.4 5.2 23c1.1 11.4 0.8 12.3-5.1 18.5c-4.9 5.1-7.8 6.5-13.8 6.5c-4.3 0-9.7-1.3-12.2-3c-2.5-1.6-5.4-6.4-6.4-10.5c-1.1-4.1-2.4-10.9-3-15c-0.8-5.1-2.9-8.8-6.6-11.6c-3-2.2-7.1-4-9-4c-1.9 0.1-6 1.4-9 2.9c-3 1.6-8.7 6.3-12.6 10.5c-4 4.3-8.8 10.4-10.9 13.7c-2 3.3-5.3 10.9-7.4 17c-2 6-3.7 15-3.6 20c0 4.9 1.7 12.1 3.7 16c2 3.8 7.2 9.3 11.5 12.2c4.3 2.9 12.3 6.8 17.8 8.7c6.6 2.3 18.7 3.9 36 4.6c14.8 0.6 35.1 0 47-1.4c11.5-1.3 31.3-4.5 44-7.2c12.6-2.6 34.7-8.5 49-13.1c14.3-4.5 38.6-13.6 54-20.2c15.4-6.5 36.5-16.4 47-21.9c10.4-5.6 27.1-14.9 37-20.8c17.7-10.5 18.1-10.9 25.7-26.3c4.2-8.6 13.1-25.5 19.7-37.6c6.7-12.1 18-31.9 25.2-44c7.2-12.1 26.7-42.7 43.4-68c16.6-25.3 43.2-64 59-86c15.8-22 36.8-50.8 46.8-64c9.9-13.2 30.6-40.2 46-60c15.4-19.8 39.7-50.4 54-68c14.3-17.6 34.7-42.2 45.4-54.6c10.6-12.4 21.5-23.9 24.1-25.5c2.6-1.6 7.6-2.9 11.2-2.9zm17.5 533.4c-7.7 3.2-19 9-25 13c-6.1 3.9-20.2 15.3-31.5 25.4c-13.2 11.7-22.6 21.9-26.5 28.7c-3.2 5.8-6.4 13.2-7.1 16.5c-0.9 4.3-0.2 7 2.4 9.6c2.1 2 8.6 4.5 14.7 5.5c7.2 1.2 15.1 1.1 23-0.3c6.6-1.2 17.4-4 24-6.3c6.6-2.2 20.1-8.1 30-13c9.9-4.9 27-14.9 37.9-22.2c10.9-7.3 27.4-20.3 36.5-28.8c9.1-8.5 16.6-16.4 16.6-17.5c0-1.1-0.9-2-2-2c-1.1 0-6.3-3.2-11.5-7.2c-5.2-3.9-14-8.4-19.5-10c-5.5-1.5-13.2-2.8-17-2.7c-3.9 0.1-12.4 1.4-19 2.8c-6.6 1.4-18.3 5.2-26 8.5zm441 118.1c-16 6.1-37.1 14.9-47 19.6c-9.9 4.8-24.8 13-33 18.3c-8.3 5.4-17.5 13.1-20.5 17.2c-4.1 5.6-5.2 8.8-4.3 12.9c0.7 3 4.1 8.1 7.5 11.4c5.9 5.5 7.1 5.8 18.3 4.8c7.8-0.6 17.2-3.4 27-8c8.2-3.8 19.5-10 25-13.8c5.5-3.7 16.3-12.2 23.9-18.9c7.7-6.6 19.3-18.8 25.8-27c6.5-8.3 13.5-18.4 15.5-22.5c2.1-4.1 3.5-7.8 3.1-8.2c-0.3-0.4-3.2 0.2-6.5 1.2c-3.2 1.1-18.9 6.9-34.8 13zm352 11.4c-7.2 3.1-19.3 8.7-27 12.6c-7.7 3.9-18.1 9.7-23 13c-5 3.4-12.4 9.3-16.7 13.3c-4.2 4-8.4 8.8-9.5 10.7c-1.3 2.5-0.5 5.8 2.7 11.5c2.5 4.4 6.3 9 8.5 10.2c2.3 1.3 8.7 1.8 15 1.2c6-0.6 15.9-2.9 22-5.1c6-2.3 18.2-8.8 27-14.5c8.8-5.7 24-18.1 33.7-27.6c9.7-9.4 22.1-23.7 27.5-31.7c5.4-8 9.8-15.4 9.8-16.5c0-1.1-1.1-2-2.5-1.9c-1.4 0-14.2 4.4-28.5 9.7c-14.3 5.3-31.9 12.1-39 15.1z" />
</svg>