<svg version="1.2" xmlns="http://www.w3.org/2000/svg" viewBox="0 0 728 474" width="728" height="474">
	<title>classy-logo</title>
	<style>
		.s0 { fill: #d9415f } 
	</style>
	<path id="Layer" class="s0" d="m365.5 0c2.5 0 21.4 7.7 42 17.1c20.6 9.3 37.7 17 38 17c0.3-0.1 5.2 2.1 11 4.7c5.8 2.6 28.9 13.1 51.5 23.3c22.5 10.2 46.8 20.9 54 24c7.1 3 23.3 10.1 36 15.8c12.6 5.8 29.5 13.5 37.5 17.3c8 3.7 14.9 6.8 15.5 6.8c0.5 0 5.7 2.1 11.5 4.7c5.8 2.6 21.3 9.6 34.5 15.4c13.2 5.9 25.6 11.8 27.5 13.3c2.8 2.1 3 3.1 1 5.1c-1.4 1.4-13.3 7.3-26.5 13.2c-13.2 5.8-25.1 12.1-26.5 13.9c-1.9 2.5-2.6 13.1-2.5 37.9c0 33.2 0.2 34.6 4.5 38.5c2.5 2.3 5.6 4.1 7 4c1.4 0 5.9 3.9 10 8.7c4.1 4.7 8.6 12.2 10 16.5c1.3 4.3 2.4 10.9 2.4 14.8c0 3.8-1.1 10.5-2.4 14.8c-1.7 5.3-6.3 11.2-25.2 28.2l5.7 41c3.1 22.5 6.3 45.9 7.1 52c1.3 10.4 1.1 11.1-3.4 12.5c-2.6 0.8-16 1.5-29.7 1.6c-18.1 0-25.6-0.6-27.2-2.5c-1.7-1.9-0.5-14.3 4.4-47.6c3.6-24.8 6.6-48.2 6.7-52c0.1-5.6-1-7.6-5.4-10.2c-3-1.8-8-6.1-11-9.5c-3-3.5-6.9-11.5-8.7-17.8c-2.5-9.2-2.7-13.3-1-20.5c1.2-5 4.8-12.6 8-17c3.1-4.4 9.9-10.3 24.2-18v-31.5c0-23.9-0.6-31.5-2.5-31.4c-1.4 0-30 12.2-63.5 27.1c-33.6 15-74.1 33.1-90 40.2c-16 7.2-30.8 13.8-33 14.6c-2.2 0.9-9.9 4.3-17 7.6c-7.2 3.2-26.5 12-43 19.4c-28.9 13-30.3 13.4-37 10.9c-3.9-1.4-12.9-5.3-20-8.5c-7.2-3.2-28.8-12.9-48-21.4c-19.3-8.6-48.5-21.6-65-28.9c-16.5-7.3-32.7-14.5-36-16c-3.3-1.5-19.5-8.8-36-16.2c-16.5-7.4-55.2-24.6-86-38.3c-30.8-13.6-58.7-26.4-68-32l7-4.1c3.8-2.3 26.3-12.7 50-23.1c23.6-10.5 48.8-21.7 56-25c7.1-3.3 24.7-11.1 39-17.4c14.3-6.3 47.6-21.1 74-33c26.4-11.8 52-23.1 56.9-25.2c4.9-2.1 24.2-10.8 43-19.3c18.7-8.5 36.1-15.5 38.6-15.5zm-185 276c2.5 0.1 24.3 9 48.5 19.8c24.2 10.9 56.6 25.4 72 32.2c15.4 6.9 35.4 15.9 44.5 20.2c9.1 4.3 17.6 7.8 19 7.7c1.4 0 22.3-8.9 46.5-19.8c24.2-10.8 54.8-24.4 68-30.2c13.2-5.8 30.3-13.4 38-17c7.7-3.5 17.6-7.9 22-9.7c4.4-1.8 10-3.3 12.5-3.2c3.3 0 5.7 2.3 8.8 8.5c2.3 4.7 5.5 12.5 7 17.5c1.6 4.9 3.4 18.9 4.1 31c1.2 20.8 1.1 22.3-3.1 26.5c-3.4 3.6-6.5 4.5-15.3 4.5c-6.1 0-19.8 1.9-30.5 4.2c-10.7 2.3-25.8 6.5-33.5 9.3c-7.7 2.7-19.4 7.7-26 11c-6.6 3.3-17 9.2-23 13.1c-6.1 3.9-17.3 12.6-24.9 19.3c-7.7 6.6-17.1 15.6-21 19.9c-3.9 4.3-8.8 9.7-10.8 12c-2.1 2.3-6.3 8-9.5 12.7c-3.2 4.7-7.4 8.5-9.3 8.6c-2 0-6.2-4.1-9.8-9.5c-3.5-5.3-13.1-16.8-21.3-25.6c-8.2-8.8-22-21.2-30.7-27.6c-8.6-6.4-21.1-14.6-27.7-18.2c-6.6-3.5-19.2-9.4-28-13.1c-8.8-3.6-25.5-8.7-37-11.3c-11.6-2.6-25.7-4.8-31.5-4.8c-5.8 0-13-1-21.5-4.3l1.3-22.3c0.8-13.8 2.9-27.4 5.5-35.4c2.3-7.2 5.9-15.9 8.1-19.5c2.7-4.3 5.6-6.5 8.6-6.5z" />
</svg>